<?xml version="1.0" encoding="UTF-8"?><svg id="a" xmlns="http://www.w3.org/2000/svg" width="108.3" height="54.1" xmlns:xlink="http://www.w3.org/1999/xlink" viewBox="0 0 108.3 54.1"><defs><linearGradient id="b" x1="46" y1="33.8" x2="98.56" y2="67.19" gradientTransform="translate(0 55.4) scale(1 -1)" gradientUnits="userSpaceOnUse"><stop offset="0" stop-color="#009ee2"/><stop offset="1" stop-color="#005ca8"/></linearGradient><linearGradient id="c" x1="56.68" y1="16.98" x2="109.24" y2="50.37" gradientTransform="translate(0 55.4) scale(1 -1)" gradientUnits="userSpaceOnUse"><stop offset="0" stop-color="#009ee2"/><stop offset="1" stop-color="#005ca8"/></linearGradient><linearGradient id="d" x1="64.93" y1="3.99" x2="117.49" y2="37.38" gradientTransform="translate(0 55.4) scale(1 -1)" gradientUnits="userSpaceOnUse"><stop offset="0" stop-color="#009ee2"/><stop offset="1" stop-color="#005ca8"/></linearGradient><linearGradient id="e" x1="55.33" y1="19.11" x2="107.89" y2="52.49" gradientTransform="translate(0 55.4) scale(1 -1)" gradientUnits="userSpaceOnUse"><stop offset="0" stop-color="#009ee2"/><stop offset="1" stop-color="#005ca8"/></linearGradient></defs><path d="m72.1,0c-12,0-13.4,10.4-13.4,10.4h.2c1.4-2,5.6-5.3,11.2-5.3,7.4,0,4.8,5.9,4.7,6.1,0,0,6.9-3.3,5-7.8-1-2.3-4.3-3.4-7.7-3.4Z" fill="url(#b)"/><path d="m17.2,36.3l-1.7,17.8h16.1l1.8-17.8h-16.2Zm8.4,12.9h-3.2l.8-8.1h3.2l-.8,8.1Z" fill="#005ca8"/><polygon points="52.2 36.2 50.5 53.9 56.9 53.9 58.1 41 61.4 41 60.1 54 66.6 53.9 68.3 36.2 52.2 36.2" fill="#005ca8"/><path d="m78.6,36.1h-8.9l-1.7,17.8h6.4l3.8-4.8h-3.3l.8-8.1h3.2l-.8,8.1-.5,4.8h6.4l1.3-12.6c-4.4-.6-6.5-2.5-6.7-5.2Z" fill="#005ca8"/><polygon points="51.1 36.3 44.6 36.3 40.6 42.8 41.2 36.3 34.7 36.3 33 54 39.4 54 40 47.6 43.3 47.6 42.7 53.9 49.1 53.9 50.3 42.7 47 42.7 51.1 36.3" fill="#005ca8"/><path d="m51,34.9l1.8-17.8h-16.1l-1.7,17.8h16Zm-8.4-12.9h3.2l-.8,8.1h-3.2l.8-8.1Z" fill="#009ee2"/><path d="m19.5,13.4c-.2,2.4-2.1,21.6-2.1,21.6h6.4l.6-6.4h3.3l-.6,6.4h6.5l1.1-11.3h-3.3l4.1-6.5h-6.5l-4,6.5.9-8.3c.3-3.5-2.2-5.8-7-5.7-.1,0,.8,1,.6,3.7Z" fill="#009ee2"/><polygon points="16.6 30 6.9 30.1 7.7 22 10.9 22 10.2 30 17.4 22 17.9 17.1 1.7 17.2 0 34.9 16.1 34.9 16.6 30" fill="#009ee2"/><path d="m108.3,4.3l-.3,1.8c-.5,2.5-2.3,4.1-5.4,4.1h-10.6l-1.4,7.7c1.2-.1,3.1-.3,4.5-.3,2.8.1,5.7.9,7.8,3-.9,2.2-3.3,3.8-4.6,4.6-.2-.4-2.6-4.8-14.2-.7h-.1c-.7.3-1.4.5-2,.8l3.1-14.8c.9-4,2.7-6.2,6.7-6.2h16.5Z" fill="url(#c)"/><path d="m105.2,26.6l-.1.8c-.3,2-.9,4-2,5.6-2.7,3.9-7.3,6.1-13,6.1-6.3,0-9-1.9-9.2-4.9l5-1c.7.7,3.2,2.7,9.3.8,3.5-1.2,7.2-3.1,9.2-6.1.4-.3.6-.8.8-1.3Z" fill="url(#d)"/><path d="m58.2,33.2h15.8c2.7,0,4.8-1.2,5.2-3.4l.4-2.5h-16c.7-.9,2.5-2.4,3.8-3.3l6-4.1c3.7-2.6,6-4.4,7.4-6.7l.1-.1c.1-.2.2-.3.3-.5.3-.5.4-1,.4-1.5,0,0-1.2,1.5-3.8,3-1,.6-2.5,1.3-4.4,2-2.2.9-4.3,1.8-6.4,2.9-2.4,1.3-4.5,2.6-6.7,4.1-1.2.9-2.4,1.9-3.3,3-1,1.3-1.5,2.4-1.7,3.5-.3,2.1,1,3.6,2.9,3.6Z" fill="url(#e)"/></svg>